<?xml version="1.0" standalone="no"?>
<!DOCTYPE svg PUBLIC "-//W3C//DTD SVG 20010904//EN"
 "http://www.w3.org/TR/2001/REC-SVG-20010904/DTD/svg10.dtd">
<svg version="1.0" xmlns="http://www.w3.org/2000/svg"
 width="120.000000pt" height="120.000000pt" viewBox="0 0 120.000000 120.000000"
 preserveAspectRatio="xMidYMid meet">
<metadata>
Created by potrace 1.14, written by Peter Selinger 2001-2017
</metadata>
<g transform="translate(0.000000,120.000000) scale(0.100000,-0.100000)"
fill="#000000" stroke="none">
<path d="M565 1177 c-10 -16 -35 -29 -75 -40 -65 -18 -130 -68 -157 -120 -8
-17 -18 -65 -20 -109 l-6 -78 -37 0 c-56 0 -65 -31 -64 -220 1 -188 31 -241
166 -285 33 -11 60 -24 60 -29 -1 -6 -18 -15 -40 -21 -53 -16 -122 -56 -122
-71 0 -6 7 -17 15 -24 14 -12 29 -11 70 6 17 7 18 6 7 -8 -10 -13 -10 -17 0
-21 7 -3 2 -5 -12 -4 -18 1 -24 -2 -22 -13 2 -9 -10 -2 -27 14 -30 28 -32 29
-45 11 -7 -10 -11 -26 -9 -36 3 -9 0 -20 -6 -23 -6 -4 -11 -16 -11 -27 0 -13
7 -19 24 -19 14 0 33 -11 44 -25 22 -28 32 -32 32 -11 0 20 18 24 65 15 22 -4
98 -8 168 -9 101 -2 130 -5 134 -16 4 -11 9 -12 19 -3 10 8 14 8 14 0 0 -18
99 -14 106 4 8 20 44 20 44 0 0 -22 41 -19 47 4 6 24 62 34 84 15 23 -21 35
-18 81 24 38 34 88 119 88 150 0 7 -24 23 -52 36 -29 13 -89 40 -132 60 l-79
37 37 38 c48 49 64 105 67 228 2 112 -8 191 -27 210 -7 7 -26 13 -42 13 -29 0
-29 0 -35 75 -4 41 -13 90 -21 108 -21 51 -85 100 -164 125 -53 17 -71 28 -76
45 -6 21 -7 21 -20 5 -13 -18 -52 -26 -41 -9 13 22 -15 20 -30 -2z m143 -59
c28 -17 52 -45 52 -61 0 -3 -7 -8 -17 -11 -10 -4 -25 2 -39 15 -24 22 -75 37
-111 31 -13 -2 -36 -16 -52 -32 -26 -27 -30 -28 -50 -14 -19 14 -20 17 -7 36
47 66 147 82 224 36z m-93 -96 c-15 -16 -16 -15 -4 12 7 15 15 23 17 16 3 -7
-3 -19 -13 -28z m41 -62 c18 0 18 -14 -1 -30 -20 -17 -6 -33 31 -34 15 -1 29
-7 32 -14 3 -9 -23 -12 -98 -12 -77 0 -101 3 -97 13 2 6 14 12 26 11 16 0 20
4 15 18 -5 17 10 26 19 11 2 -5 2 -3 1 4 -2 6 4 17 12 23 8 7 14 18 14 24 0 7
6 18 13 25 10 10 13 7 15 -13 2 -14 10 -26 18 -26z m-62 15 c-7 -17 -20 -20
-29 -6 -3 5 3 12 12 14 10 3 19 5 20 6 1 0 0 -6 -3 -14z m89 -50 c-3 -9 -8
-14 -10 -11 -3 3 -2 9 2 15 9 16 15 13 8 -4z m-348 -115 c3 -5 1 -10 -5 -10
-6 0 -30 -9 -52 -20 -56 -27 -57 -25 -13 10 39 31 59 37 70 20z m609 -9 c18
-19 17 -19 -18 -9 -38 12 -48 28 -18 28 11 0 27 -9 36 -19z m-263 -67 c37 -6
37 -7 32 -49 -4 -45 13 -75 44 -75 27 0 53 31 53 62 l0 29 40 -32 c22 -18 40
-38 40 -46 0 -7 7 -13 15 -13 15 0 20 -26 9 -54 -3 -9 -12 -16 -19 -16 -7 0
-18 -15 -26 -32 -20 -50 -85 -133 -127 -161 -68 -47 -164 -52 -240 -13 -44 23
-138 133 -148 173 -3 12 -17 29 -30 38 -35 23 -32 65 6 93 16 12 32 22 36 21
3 0 18 11 33 25 l27 26 -4 -33 c-7 -58 46 -88 82 -48 14 15 16 29 11 60 -5 33
-4 40 12 44 27 7 113 8 154 1z m-364 -256 c-3 -8 -6 -5 -6 6 -1 11 2 17 5 13
3 -3 4 -12 1 -19z m497 -183 c-4 -8 -10 -12 -15 -9 -14 8 -10 24 6 24 9 0 12
-6 9 -15z"/>
<path d="M570 517 c0 -17 47 -29 69 -18 33 18 25 26 -24 26 -25 0 -45 -3 -45
-8z"/>
<path d="M536 441 c-8 -12 40 -31 79 -31 39 0 87 19 79 31 -3 5 -38 9 -79 9
-41 0 -76 -4 -79 -9z"/>
<path d="M608 383 c7 -3 16 -2 19 1 4 3 -2 6 -13 5 -11 0 -14 -3 -6 -6z"/>
</g>
</svg>
